<?xml version="1.0" encoding="UTF-8"?>
<svg width="36px" height="36px" viewBox="0 0 42 42" version="1.1" xmlns="http://www.w3.org/2000/svg" xmlns:xlink="http://www.w3.org/1999/xlink">
    <!-- Generator: Sketch 55 (78076) - https://sketchapp.com -->
    <title>Group 4</title>
    <desc>Created with Sketch.</desc>
    <g id="icons" stroke="none" stroke-width="1" fill="none" fill-rule="evenodd">
        <g id="navigation" transform="translate(-225.000000, 1.000000)">
            <g id="Group-4" transform="translate(226.000000, 0.000000)">
                <g id="icon-exclamation" fill-rule="nonzero" stroke="#212529">
                    <g id="Path_1">
                        <path d="M36.7999987,39.8974359 L3.20000008,39.8974359 C2.37264623,39.8974359 1.59481029,39.5752454 1.0097846,38.9902156 C0.424753825,38.4051889 0.102564103,37.6273538 0.102564103,36.7999987 L0.102564103,3.20000008 C0.102564103,2.37264623 0.424753825,1.59481029 1.0097846,1.0097846 C1.59481029,0.424753825 2.37264623,0.102564103 3.20000008,0.102564103 L36.7999987,0.102564103 C37.6273538,0.102564103 38.4051889,0.424753825 38.9902219,1.0097846 C39.5752454,1.59481029 39.8974359,2.37264623 39.8974359,3.20000008 L39.8974359,36.7999987 C39.8974359,37.6273538 39.5752454,38.4051889 38.9902219,38.9902156 C38.4051889,39.5752454 37.6273538,39.8974359 36.7999987,39.8974359 Z" id="Path" stroke-width="2"></path>
                        <path d="M3.20000125,0.205128205 C2.40004006,0.205128205 1.64795861,0.516651643 1.08230669,1.08230669 C0.516651643,1.64795861 0.205128205,2.40004006 0.205128205,3.20000125 L0.205128205,36.7999987 C0.205128205,37.5999599 0.516651643,38.3520351 1.08230669,38.9176933 C1.64796487,39.4833484 2.40004006,39.7948718 3.20000125,39.7948718 L36.7999987,39.7948718 C37.5999599,39.7948718 38.3520351,39.4833484 38.9176933,38.9176933 C39.4833484,38.3520351 39.7948718,37.5999599 39.7948718,36.7999987 L39.7948718,3.20000125 C39.7948718,2.40004006 39.4833484,1.64796487 38.9176933,1.08230669 C38.3520351,0.516651643 37.5999599,0.205128205 36.7999987,0.205128205 L3.20000125,0.205128205 L3.20000125,0.205128205 Z M3.20000125,0 L36.7999987,0 C38.5673077,0 40,1.43268605 40,3.20000125 L40,36.7999987 C40,38.5673077 38.5673077,40 36.7999987,40 L3.20000125,40 C1.43268605,40 0,38.5673077 0,36.7999987 L0,3.20000125 C0,1.43268605 1.43268605,0 3.20000125,0 Z" id="Shape" fill="#ffffff"></path>
                    </g>
                </g>
                <path d="M8,17 L8,34 L32,34 L32,17 L8,17 Z" id="Rectangle" stroke="#ffffff" stroke-width="2" fill="#ffffff"></path>
                <polygon id="Triangle" stroke="#FFFFFF" stroke-width="2" fill="#FFFFFF" stroke-linejoin="round" points="20.1097798 5 36 17 4 17"></polygon>
                <path d="M28.5,6.5 L28.5,12.5 L30.5,12.5 L30.5,6.5 L28.5,6.5 Z" id="Rectangle" stroke="#FFFFFF" fill="#FFFFFF"></path>
                <rect id="Rectangle" stroke="#212529" stroke-width="2" fill="#212529" x="17" y="22" width="6" height="11" rx="1"></rect>
            </g>
        </g>
    </g>
</svg>
