<?xml version="1.0" encoding="UTF-8"?>
<svg width="242px" height="202px" viewBox="0 0 242 202" version="1.1" xmlns="http://www.w3.org/2000/svg" xmlns:xlink="http://www.w3.org/1999/xlink">
    <!-- Generator: Sketch 55 (78076) - https://sketchapp.com -->
    <title>icon-box</title>
    <desc>Created with Sketch.</desc>
    <g id="icons" stroke="none" stroke-width="1" fill="none" fill-rule="evenodd">
        <g id="navigation" transform="translate(-269.000000, 1.000000)">
            <g id="icon-box" transform="translate(270.000000, 0.000000)">
                <rect id="Rectangle" stroke-opacity="0.01" stroke="#000000" x="-0.5" y="-0.5" width="241" height="201"></rect>
                <g id="Group-12" transform="translate(19.000000, 19.000000)">
                    <g id="Path_1" transform="translate(1.000000, 0.000000)" fill-rule="nonzero" stroke="#0091FF">
                        <path d="M36.7999987,39.8974359 L3.20000008,39.8974359 C2.37264623,39.8974359 1.59481029,39.5752454 1.0097846,38.9902156 C0.424753825,38.4051889 0.102564103,37.6273538 0.102564103,36.7999987 L0.102564103,3.20000008 C0.102564103,2.37264623 0.424753825,1.59481029 1.0097846,1.0097846 C1.59481029,0.424753825 2.37264623,0.102564103 3.20000008,0.102564103 L36.7999987,0.102564103 C37.6273538,0.102564103 38.4051889,0.424753825 38.9902219,1.0097846 C39.5752454,1.59481029 39.8974359,2.37264623 39.8974359,3.20000008 L39.8974359,36.7999987 C39.8974359,37.6273538 39.5752454,38.4051889 38.9902219,38.9902156 C38.4051889,39.5752454 37.6273538,39.8974359 36.7999987,39.8974359 Z" id="Path" stroke-width="2"></path>
                        <path d="M3.20000125,0.205128205 C2.40004006,0.205128205 1.64795861,0.516651643 1.08230669,1.08230669 C0.516651643,1.64795861 0.205128205,2.40004006 0.205128205,3.20000125 L0.205128205,36.7999987 C0.205128205,37.5999599 0.516651643,38.3520351 1.08230669,38.9176933 C1.64796487,39.4833484 2.40004006,39.7948718 3.20000125,39.7948718 L36.7999987,39.7948718 C37.5999599,39.7948718 38.3520351,39.4833484 38.9176933,38.9176933 C39.4833484,38.3520351 39.7948718,37.5999599 39.7948718,36.7999987 L39.7948718,3.20000125 C39.7948718,2.40004006 39.4833484,1.64796487 38.9176933,1.08230669 C38.3520351,0.516651643 37.5999599,0.205128205 36.7999987,0.205128205 L3.20000125,0.205128205 L3.20000125,0.205128205 Z M3.20000125,0 L36.7999987,0 C38.5673077,0 40,1.43268605 40,3.20000125 L40,36.7999987 C40,38.5673077 38.5673077,40 36.7999987,40 L3.20000125,40 C1.43268605,40 0,38.5673077 0,36.7999987 L0,3.20000125 C0,1.43268605 1.43268605,0 3.20000125,0 Z" id="Shape" fill="#FFFFFF"></path>
                    </g>
                    <rect id="Rectangle" stroke="#0091FF" fill="#0091FF" x="9.5" y="7.5" width="22" height="3" rx="1.5"></rect>
                    <rect id="Rectangle" fill="#0091FF" x="9" y="18" width="23" height="4" rx="2"></rect>
                    <rect id="Rectangle" fill="#0091FF" x="9" y="29" width="23" height="4" rx="2"></rect>
                    <g id="Group-9" transform="translate(160.000000, 0.000000)">
                        <g id="Group-4">
                            <g id="icon-exclamation" fill-rule="nonzero" stroke="#0091FF">
                                <g id="Path_1">
                                    <path d="M36.7999987,39.8974359 L3.20000008,39.8974359 C2.37264623,39.8974359 1.59481029,39.5752454 1.0097846,38.9902156 C0.424753825,38.4051889 0.102564103,37.6273538 0.102564103,36.7999987 L0.102564103,3.20000008 C0.102564103,2.37264623 0.424753825,1.59481029 1.0097846,1.0097846 C1.59481029,0.424753825 2.37264623,0.102564103 3.20000008,0.102564103 L36.7999987,0.102564103 C37.6273538,0.102564103 38.4051889,0.424753825 38.9902219,1.0097846 C39.5752454,1.59481029 39.8974359,2.37264623 39.8974359,3.20000008 L39.8974359,36.7999987 C39.8974359,37.6273538 39.5752454,38.4051889 38.9902219,38.9902156 C38.4051889,39.5752454 37.6273538,39.8974359 36.7999987,39.8974359 Z" id="Path" stroke-width="2"></path>
                                    <path d="M3.20000125,0.205128205 C2.40004006,0.205128205 1.64795861,0.516651643 1.08230669,1.08230669 C0.516651643,1.64795861 0.205128205,2.40004006 0.205128205,3.20000125 L0.205128205,36.7999987 C0.205128205,37.5999599 0.516651643,38.3520351 1.08230669,38.9176933 C1.64796487,39.4833484 2.40004006,39.7948718 3.20000125,39.7948718 L36.7999987,39.7948718 C37.5999599,39.7948718 38.3520351,39.4833484 38.9176933,38.9176933 C39.4833484,38.3520351 39.7948718,37.5999599 39.7948718,36.7999987 L39.7948718,3.20000125 C39.7948718,2.40004006 39.4833484,1.64796487 38.9176933,1.08230669 C38.3520351,0.516651643 37.5999599,0.205128205 36.7999987,0.205128205 L3.20000125,0.205128205 L3.20000125,0.205128205 Z M3.20000125,0 L36.7999987,0 C38.5673077,0 40,1.43268605 40,3.20000125 L40,36.7999987 C40,38.5673077 38.5673077,40 36.7999987,40 L3.20000125,40 C1.43268605,40 0,38.5673077 0,36.7999987 L0,3.20000125 C0,1.43268605 1.43268605,0 3.20000125,0 Z" id="Shape" fill="#FFFFFF"></path>
                                </g>
                            </g>
                            <path d="M8,17 L8,34 L32,34 L32,17 L8,17 Z" id="Rectangle" stroke="#0091FF" stroke-width="2" fill="#0091FF"></path>
                            <polygon id="Triangle" stroke="#0091FF" stroke-width="2" fill="#0091FF" stroke-linejoin="round" points="20.1097798 5 36 17 4 17"></polygon>
                            <path d="M28.5,6.5 L28.5,12.5 L30.5,12.5 L30.5,6.5 L28.5,6.5 Z" id="Rectangle" stroke="#0091FF" fill="#0091FF"></path>
                            <rect id="Rectangle" stroke="#FFFFFF" stroke-width="2" fill="#FFFFFF" x="17" y="22" width="6" height="11" rx="1"></rect>
                        </g>
                    </g>
                    <g id="Group-11" transform="translate(160.000000, 59.000000)">
                        <g id="Path_1" transform="translate(0.000000, 1.000000)" fill-rule="nonzero">
                            <path d="M36.7999987,39.8974359 L3.20000008,39.8974359 C2.37264623,39.8974359 1.59481029,39.5752454 1.0097846,38.9902156 C0.424753825,38.4051889 0.102564103,37.6273538 0.102564103,36.7999987 L0.102564103,3.20000008 C0.102564103,2.37264623 0.424753825,1.59481029 1.0097846,1.0097846 C1.59481029,0.424753825 2.37264623,0.102564103 3.20000008,0.102564103 L36.7999987,0.102564103 C37.6273538,0.102564103 38.4051889,0.424753825 38.9902219,1.0097846 C39.5752454,1.59481029 39.8974359,2.37264623 39.8974359,3.20000008 L39.8974359,36.7999987 C39.8974359,37.6273538 39.5752454,38.4051889 38.9902219,38.9902156 C38.4051889,39.5752454 37.6273538,39.8974359 36.7999987,39.8974359 Z" id="Path" stroke="#0091FF" stroke-width="2"></path>
                            <path d="M3.20000125,0.205128205 C2.40004006,0.205128205 1.64795861,0.516651643 1.08230669,1.08230669 C0.516651643,1.64795861 0.205128205,2.40004006 0.205128205,3.20000125 L0.205128205,36.7999987 C0.205128205,37.5999599 0.516651643,38.3520351 1.08230669,38.9176933 C1.64796487,39.4833484 2.40004006,39.7948718 3.20000125,39.7948718 L36.7999987,39.7948718 C37.5999599,39.7948718 38.3520351,39.4833484 38.9176933,38.9176933 C39.4833484,38.3520351 39.7948718,37.5999599 39.7948718,36.7999987 L39.7948718,3.20000125 C39.7948718,2.40004006 39.4833484,1.64796487 38.9176933,1.08230669 C38.3520351,0.516651643 37.5999599,0.205128205 36.7999987,0.205128205 L3.20000125,0.205128205 L3.20000125,0.205128205 Z M3.20000125,0 L36.7999987,0 C38.5673077,0 40,1.43268605 40,3.20000125 L40,36.7999987 C40,38.5673077 38.5673077,40 36.7999987,40 L3.20000125,40 C1.43268605,40 0,38.5673077 0,36.7999987 L0,3.20000125 C0,1.43268605 1.43268605,0 3.20000125,0 Z" id="Shape" fill="#707070"></path>
                        </g>
                        <g id="wrench" transform="translate(18.562828, 20.114997) rotate(39.000000) translate(-18.562828, -20.114997) translate(10.062828, 1.114997)">
                            <path d="M8.5,14 C11.5375661,14 14,11.5375661 14,8.5 C14,8.01229091 12.8030407,8.63507809 12.259794,8.77346954 C12.1554781,8.7671578 11.0725949,9.55237243 10.3474616,10.0467462 C10.0556875,10.2456689 9.53486064,10.4496483 8.86434398,10.4659673 C8.117452,10.484145 7.33818363,9.73218671 7.20022314,9.56335575 C6.3216801,8.48822723 6.14339968,6.8529859 7.42382812,5.91183036 C8.63245597,5.02345053 9.34473734,3 8.5,3 C7.15017478,3 5.91392157,3.48625958 4.95685424,4.29316488 C4.75054749,4.46710249 4.55721359,4.65593946 4.3785114,4.85801691 C3.52067094,5.82806777 3,7.10322928 3,8.5 C3,11.5375661 5.46243388,14 8.5,14 Z" id="Oval" stroke="#0091FF" fill="#0091FF" transform="translate(8.500000, 8.500000) rotate(-41.000000) translate(-8.500000, -8.500000) "></path>
                            <path d="M7.56613535,13.9897887 C5.75496078,13.9897887 5.72638876,14.0142135 5.72554759,15.8977508 L4.71667009,33.2539737 C4.71667009,34.5614445 4.94027491,35.5518273 5.41940011,36.1324655 C5.8670809,36.674997 6.69781054,36.9891562 7.56613535,36.9891562 C9.28715984,36.9891562 10.4262283,36.7189075 11.0521062,36.0078628 C11.354093,35.664783 11.5966527,35.1640124 11.6198105,34.7668887 C11.7087407,33.836108 11.7358217,33.1809834 11.7037756,32.8199687 C11.3618061,28.967515 10.7672747,23.2652588 9.91878462,15.6185955 C9.98870964,14.7523877 9.85521159,14.3594666 9.56160964,14.1883838 C9.28028965,14.0244576 8.89471188,13.9870324 7.786141,13.9894713 C7.67757737,13.989709 7.67757737,13.989709 7.56613535,13.9897887 Z" id="Rectangle" stroke="#0091FF" fill="#0091FF" transform="translate(8.216670, 25.489156) rotate(2.000000) translate(-8.216670, -25.489156) "></path>
                            <circle id="Oval" stroke="#FFFFFF" fill="#FFFFFF" cx="7.68746282" cy="31.6206829" r="1"></circle>
                            <rect id="Rectangle" stroke="#0091FF" fill="#0091FF" transform="translate(8.216670, 13.989156) rotate(90.000000) translate(-8.216670, -13.989156) " x="5.71667009" y="12.9891562" width="5" height="2"></rect>
                        </g>
                        <g id="screwdriver" transform="translate(21.500000, 21.000000) rotate(138.000000) translate(-21.500000, -21.000000) translate(17.000000, 2.000000)" stroke="#0091FF">
                            <rect id="Rectangle" fill="#D8D8D8" x="4.69922973" y="7.21296262" width="1" height="28" rx="0.5"></rect>
                            <path d="M5.27024131,34.5788618 C5.93690798,34.5788618 6.27024131,35.5788618 6.27024131,37.5788618 L4.27024131,37.5788618 C4.27024131,35.5788618 4.60357465,34.5788618 5.27024131,34.5788618 Z" id="Triangle" fill="#0091FF" stroke-linejoin="round" transform="translate(5.270241, 36.078862) scale(-1, -1) translate(-5.270241, -36.078862) "></path>
                            <path d="M4.12258724,1.04318675 C4.07381682,1.04318675 4.02505684,1.04461388 3.9763699,1.04746631 C2.59802157,1.12821992 1.5461132,2.31105575 1.6268668,3.68940408 L2.33337275,15.7484486 C2.40886228,17.0369467 3.47578063,18.0431867 4.7664882,18.0431867 C6.06908036,18.0431867 7.15244811,17.0410842 7.2538112,15.7424418 L8.19081661,3.73772786 C8.19586852,3.67300385 8.19839735,3.60810762 8.19839735,3.54318675 C8.19839735,2.16247488 7.07910923,1.04318675 5.69839735,1.04318675 L4.12258724,1.04318675 Z" id="Rectangle" fill="#0091FF"></path>
                        </g>
                    </g>
                    <g id="icon-exclamation" transform="translate(0.000000, 60.000000)" fill-rule="nonzero">
                        <g id="Path_1">
                            <path d="M36.7999987,39.8974359 L3.20000008,39.8974359 C2.37264623,39.8974359 1.59481029,39.5752454 1.0097846,38.9902156 C0.424753825,38.4051889 0.102564103,37.6273538 0.102564103,36.7999987 L0.102564103,3.20000008 C0.102564103,2.37264623 0.424753825,1.59481029 1.0097846,1.0097846 C1.59481029,0.424753825 2.37264623,0.102564103 3.20000008,0.102564103 L36.7999987,0.102564103 C37.6273538,0.102564103 38.4051889,0.424753825 38.9902219,1.0097846 C39.5752454,1.59481029 39.8974359,2.37264623 39.8974359,3.20000008 L39.8974359,36.7999987 C39.8974359,37.6273538 39.5752454,38.4051889 38.9902219,38.9902156 C38.4051889,39.5752454 37.6273538,39.8974359 36.7999987,39.8974359 Z" id="Path" stroke="#0091FF" stroke-width="2"></path>
                            <path d="M3.20000125,0.205128205 C2.40004006,0.205128205 1.64795861,0.516651643 1.08230669,1.08230669 C0.516651643,1.64795861 0.205128205,2.40004006 0.205128205,3.20000125 L0.205128205,36.7999987 C0.205128205,37.5999599 0.516651643,38.3520351 1.08230669,38.9176933 C1.64796487,39.4833484 2.40004006,39.7948718 3.20000125,39.7948718 L36.7999987,39.7948718 C37.5999599,39.7948718 38.3520351,39.4833484 38.9176933,38.9176933 C39.4833484,38.3520351 39.7948718,37.5999599 39.7948718,36.7999987 L39.7948718,3.20000125 C39.7948718,2.40004006 39.4833484,1.64796487 38.9176933,1.08230669 C38.3520351,0.516651643 37.5999599,0.205128205 36.7999987,0.205128205 L3.20000125,0.205128205 L3.20000125,0.205128205 Z M3.20000125,0 L36.7999987,0 C38.5673077,0 40,1.43268605 40,3.20000125 L40,36.7999987 C40,38.5673077 38.5673077,40 36.7999987,40 L3.20000125,40 C1.43268605,40 0,38.5673077 0,36.7999987 L0,3.20000125 C0,1.43268605 1.43268605,0 3.20000125,0 Z" id="Shape"></path>
                        </g>
                    </g>
                    <g id="Path-3" transform="translate(8.000000, 66.000000)" fill="#0091FF">
                        <path d="M11.590764,7.01791532 C11.5545257,7.71800205 11.590764,7.92695114 10.9845172,9.08364977 C10.344354,10.3050597 9.38939123,10.8274694 8.11962891,10.6508789 C8.86977496,13.3175605 10.02682,15.3828847 11.590764,16.8468514 C13.2988223,18.4457198 15.2282031,19.6014243 17.3789062,20.3139648 C17.7221622,18.9067292 17.9960484,18.038443 18.2005648,17.7091062 C18.4807516,17.2579157 19.3848457,16.8468514 19.3848457,16.8468514 C19.3848457,16.8468514 20.4788757,16.2085497 21.1731446,16.2085497 C22.7514603,16.2085497 28.2462297,19.867714 27.4972843,22.6171918 C27.3745552,23.0677466 27.0415483,23.9230101 26.9401542,24.2028718 C26.6989444,24.8686442 26.0922722,25.390119 25.2359466,25.9172607 C24.2555929,26.5207524 23.1113973,27.0990814 19.3848457,27.0990814 C17.6368832,27.0990814 14.3829441,26.3018629 10.9845172,24.2028718 C9.92419515,23.5479787 8.37987693,22.2516763 6.3515625,20.3139648 L3.967619,16.8468514 L2.30664062,13.1791992 C1.44131589,11.0360567 0.962647915,9.47565242 0.870636688,8.49798643 C0.727880217,6.98112647 1.18234578,5.12074689 1.51044004,4.29701346 C1.85866152,3.49380195 1.81928758,3.06031765 2.30664062,2.49429708 C2.49641771,2.27388657 4.07992699,0.00420326582 6.3515625,1 C7.39692493,1.45824627 8.8514388,2.54128585 9.83300502,3.82365408 C10.9900975,5.3353388 11.5929291,6.97608728 11.590764,7.01791532 Z" id="Path-2"></path>
                    </g>
                    <g id="Group-10" transform="translate(81.000000, 60.000000)">
                        <g id="Group-8">
                            <g id="icon-exclamation" fill-rule="nonzero">
                                <g id="Path_1">
                                    <path d="M36.7999987,39.8974359 L3.20000008,39.8974359 C2.37264623,39.8974359 1.59481029,39.5752454 1.0097846,38.9902156 C0.424753825,38.4051889 0.102564103,37.6273538 0.102564103,36.7999987 L0.102564103,3.20000008 C0.102564103,2.37264623 0.424753825,1.59481029 1.0097846,1.0097846 C1.59481029,0.424753825 2.37264623,0.102564103 3.20000008,0.102564103 L36.7999987,0.102564103 C37.6273538,0.102564103 38.4051889,0.424753825 38.9902219,1.0097846 C39.5752454,1.59481029 39.8974359,2.37264623 39.8974359,3.20000008 L39.8974359,36.7999987 C39.8974359,37.6273538 39.5752454,38.4051889 38.9902219,38.9902156 C38.4051889,39.5752454 37.6273538,39.8974359 36.7999987,39.8974359 Z" id="Path" stroke="#0091FF" stroke-width="2"></path>
                                    <path d="M3.20000125,0.205128205 C2.40004006,0.205128205 1.64795861,0.516651643 1.08230669,1.08230669 C0.516651643,1.64795861 0.205128205,2.40004006 0.205128205,3.20000125 L0.205128205,36.7999987 C0.205128205,37.5999599 0.516651643,38.3520351 1.08230669,38.9176933 C1.64796487,39.4833484 2.40004006,39.7948718 3.20000125,39.7948718 L36.7999987,39.7948718 C37.5999599,39.7948718 38.3520351,39.4833484 38.9176933,38.9176933 C39.4833484,38.3520351 39.7948718,37.5999599 39.7948718,36.7999987 L39.7948718,3.20000125 C39.7948718,2.40004006 39.4833484,1.64796487 38.9176933,1.08230669 C38.3520351,0.516651643 37.5999599,0.205128205 36.7999987,0.205128205 L3.20000125,0.205128205 L3.20000125,0.205128205 Z M3.20000125,0 L36.7999987,0 C38.5673077,0 40,1.43268605 40,3.20000125 L40,36.7999987 C40,38.5673077 38.5673077,40 36.7999987,40 L3.20000125,40 C1.43268605,40 0,38.5673077 0,36.7999987 L0,3.20000125 C0,1.43268605 1.43268605,0 3.20000125,0 Z" id="Shape"></path>
                                </g>
                            </g>
                            <rect id="Rectangle" stroke="#0091FF" fill="#0091FF" x="6.5" y="12.5" width="27" height="14" rx="2"></rect>
                            <path d="M16.8502699,10.166074 C16.7032464,10.166074 16.5636744,10.2307822 16.4686725,10.3429897 L14.775347,12.3429897 C14.6988979,12.4332843 14.6569443,12.5477627 14.6569443,12.666074 C14.6569443,12.9422164 14.880802,13.166074 15.1569443,13.166074 L24.7150055,13.166074 C24.8347351,13.166074 24.9504898,13.1231105 25.0412256,13.044994 C25.2504974,12.8648276 25.2740919,12.5491256 25.0939255,12.3398538 L23.3720837,10.3398538 C23.2770996,10.2295253 23.1387464,10.166074 22.9931636,10.166074 L16.8502699,10.166074 Z" id="Rectangle" stroke="#0091FF" fill="#0091FF"></path>
                            <circle id="Oval" stroke="#0091FF" fill="#FFFFFF" cx="20" cy="19" r="5.5"></circle>
                            <circle id="Oval" stroke="#0091FF" fill="#0091FF" cx="20" cy="19" r="3.5"></circle>
                        </g>
                    </g>
                    <g id="email" transform="translate(160.000000, 121.000000)">
                        <path d="M8,9.5 L32,9.5 C33.9329966,9.5 35.5,11.0670034 35.5,13 L35.5,25 C35.5,26.9329966 33.9329966,28.5 32,28.5 L8,28.5 C6.06700338,28.5 4.5,26.9329966 4.5,25 L4.5,13 C4.5,11.0670034 6.06700338,9.5 8,9.5 Z" id="Rectangle" stroke="#FFFFFF" fill="#0091FF" transform="translate(20.000000, 19.000000) scale(1, -1) translate(-20.000000, -19.000000) "></path>
                        <path d="M23.2829174,14.7707215 L33.7860738,25.9740883 C34.3526692,26.5784567 34.3220481,27.5277104 33.7176797,28.0943058 C33.4396605,28.3549488 33.0728578,28.5 32.691768,28.5 L7.30823201,28.5 C6.47980489,28.5 5.80823201,27.8284271 5.80823201,27 C5.80823201,26.6189102 5.9532832,26.2521075 6.21392621,25.9740883 L16.7170826,14.7707215 C18.4168687,12.9576163 21.2646299,12.865753 23.0777351,14.5655392 C23.1483171,14.6317098 23.2167468,14.7001395 23.2829174,14.7707215 Z" id="Triangle" stroke="#FFFFFF" fill="#0091FF"></path>
                        <path d="M21.7057956,10.9081331 L33.4864571,21.9034171 C34.0920831,22.468668 34.1248135,23.4178514 33.5595626,24.0234774 C33.2758735,24.32743 32.8787521,24.5 32.4629797,24.5 L7.53702032,24.5 C6.7085932,24.5 6.03702032,23.8284271 6.03702032,23 C6.03702032,22.5842276 6.20959035,22.1871062 6.51354295,21.9034171 L18.2942044,10.9081331 C19.2547213,10.0116507 20.7452787,10.0116507 21.7057956,10.9081331 Z" id="Triangle-Copy" stroke="#FFFFFF" fill="#0091FF" transform="translate(20.000000, 17.000000) rotate(180.000000) translate(-20.000000, -17.000000) "></path>
                        <g id="Path_1" fill="#FFFFFF" fill-rule="nonzero" stroke="#0091FF" stroke-width="2">
                            <path d="M3.20000125,0.205128205 C2.40004006,0.205128205 1.64795861,0.516651643 1.08230669,1.08230669 C0.516651643,1.64795861 0.205128205,2.40004006 0.205128205,3.20000125 L0.205128205,36.7999987 C0.205128205,37.5999599 0.516651643,38.3520351 1.08230669,38.9176933 C1.64796487,39.4833484 2.40004006,39.7948718 3.20000125,39.7948718 L36.7999987,39.7948718 C37.5999599,39.7948718 38.3520351,39.4833484 38.9176933,38.9176933 C39.4833484,38.3520351 39.7948718,37.5999599 39.7948718,36.7999987 L39.7948718,3.20000125 C39.7948718,2.40004006 39.4833484,1.64796487 38.9176933,1.08230669 C38.3520351,0.516651643 37.5999599,0.205128205 36.7999987,0.205128205 L3.20000125,0.205128205 L3.20000125,0.205128205 Z M3.20000125,0 L36.7999987,0 C38.5673077,0 40,1.43268605 40,3.20000125 L40,36.7999987 C40,38.5673077 38.5673077,40 36.7999987,40 L3.20000125,40 C1.43268605,40 0,38.5673077 0,36.7999987 L0,3.20000125 C0,1.43268605 1.43268605,0 3.20000125,0 Z" id="Shape"></path>
                        </g>
                    </g>
                    <path d="M102.5,3 L102.5,3 C104.190221,3 105.560416,4.37019494 105.560416,6.06041605 C105.560416,6.19697275 105.551276,6.33337634 105.533058,6.46871232 L102.563674,28.5269938 C102.527211,28.7978585 102.296035,29 102.022727,29 L102.022727,29 C101.751931,29 101.525336,28.7945058 101.498951,28.5249982 L99.3410269,6.48334619 C99.1702217,4.73869352 100.446077,3.18590815 102.19073,3.01510299 C102.293513,3.00504033 102.396726,3 102.5,3 Z" id="Rectangle" fill="#0091FF"></path>
                    <circle id="Oval" fill="#0091FF" cx="102" cy="33" r="3"></circle>
                    <g id="Path_1" transform="translate(81.000000, 0.000000)" fill-rule="nonzero" stroke="#0091FF">
                        <path d="M37.6974346,39.7948718 L4.09743598,39.7948718 C3.27008213,39.7948718 2.49224619,39.4726813 1.9072205,38.8876515 C1.32218972,38.3026248 1,37.5247897 1,36.6974346 L1,3.09743598 C1,2.27008213 1.32218972,1.49224619 1.9072205,0.907220498 C2.49224619,0.322189722 3.27008213,-3.30402372e-13 4.09743598,-3.30402372e-13 L37.6974346,-3.30402372e-13 C38.5247897,-3.30402372e-13 39.3026248,0.322189722 39.8876578,0.907220498 C40.4726813,1.49224619 40.7948718,2.27008213 40.7948718,3.09743598 L40.7948718,36.6974346 C40.7948718,37.5247897 40.4726813,38.3026248 39.8876578,38.8876515 C39.3026248,39.4726813 38.5247897,39.7948718 37.6974346,39.7948718 Z" id="Path" stroke-width="2"></path>
                        <path d="M3.20000125,0.205128205 C2.40004006,0.205128205 1.64795861,0.516651643 1.08230669,1.08230669 C0.516651643,1.64795861 0.205128205,2.40004006 0.205128205,3.20000125 L0.205128205,36.7999987 C0.205128205,37.5999599 0.516651643,38.3520351 1.08230669,38.9176933 C1.64796487,39.4833484 2.40004006,39.7948718 3.20000125,39.7948718 L36.7999987,39.7948718 C37.5999599,39.7948718 38.3520351,39.4833484 38.9176933,38.9176933 C39.4833484,38.3520351 39.7948718,37.5999599 39.7948718,36.7999987 L39.7948718,3.20000125 C39.7948718,2.40004006 39.4833484,1.64796487 38.9176933,1.08230669 C38.3520351,0.516651643 37.5999599,0.205128205 36.7999987,0.205128205 L3.20000125,0.205128205 L3.20000125,0.205128205 Z M3.20000125,0 L36.7999987,0 C38.5673077,0 40,1.43268605 40,3.20000125 L40,36.7999987 C40,38.5673077 38.5673077,40 36.7999987,40 L3.20000125,40 C1.43268605,40 0,38.5673077 0,36.7999987 L0,3.20000125 C0,1.43268605 1.43268605,0 3.20000125,0 Z" id="Shape" fill="#FFFFFF"></path>
                    </g>
                    <g id="Path_1" transform="translate(1.000000, 121.000000)" fill-rule="nonzero" stroke="#0091FF">
                        <path d="M36.7999987,39.8974359 L3.20000008,39.8974359 C2.37264623,39.8974359 1.59481029,39.5752454 1.0097846,38.9902156 C0.424753825,38.4051889 0.102564103,37.6273538 0.102564103,36.7999987 L0.102564103,3.20000008 C0.102564103,2.37264623 0.424753825,1.59481029 1.0097846,1.0097846 C1.59481029,0.424753825 2.37264623,0.102564103 3.20000008,0.102564103 L36.7999987,0.102564103 C37.6273538,0.102564103 38.4051889,0.424753825 38.9902219,1.0097846 C39.5752454,1.59481029 39.8974359,2.37264623 39.8974359,3.20000008 L39.8974359,36.7999987 C39.8974359,37.6273538 39.5752454,38.4051889 38.9902219,38.9902156 C38.4051889,39.5752454 37.6273538,39.8974359 36.7999987,39.8974359 Z" id="Path" stroke-width="2"></path>
                        <path d="M3.20000125,0.205128205 C2.40004006,0.205128205 1.64795861,0.516651643 1.08230669,1.08230669 C0.516651643,1.64795861 0.205128205,2.40004006 0.205128205,3.20000125 L0.205128205,36.7999987 C0.205128205,37.5999599 0.516651643,38.3520351 1.08230669,38.9176933 C1.64796487,39.4833484 2.40004006,39.7948718 3.20000125,39.7948718 L36.7999987,39.7948718 C37.5999599,39.7948718 38.3520351,39.4833484 38.9176933,38.9176933 C39.4833484,38.3520351 39.7948718,37.5999599 39.7948718,36.7999987 L39.7948718,3.20000125 C39.7948718,2.40004006 39.4833484,1.64796487 38.9176933,1.08230669 C38.3520351,0.516651643 37.5999599,0.205128205 36.7999987,0.205128205 L3.20000125,0.205128205 L3.20000125,0.205128205 Z M3.20000125,0 L36.7999987,0 C38.5673077,0 40,1.43268605 40,3.20000125 L40,36.7999987 C40,38.5673077 38.5673077,40 36.7999987,40 L3.20000125,40 C1.43268605,40 0,38.5673077 0,36.7999987 L0,3.20000125 C0,1.43268605 1.43268605,0 3.20000125,0 Z" id="Shape" fill="#FFFFFF"></path>
                    </g>
                    <g id="Group" transform="translate(18.000000, 128.000000)" fill="#0091FF">
                        <path d="M3.53638459,11.6638415 C7.53823978,8.11205282 9.94331,8.11205282 13.971655,11.6638415 C16.4457295,13.8452311 17.7801837,16.941119 17.9750178,20.9515052 L17.9749875,20.9515066 C18.0017864,21.5031241 17.5763369,21.9720231 17.0247195,21.998822 C17.0085569,21.9996072 16.9923775,22 16.9761958,22 L2.00688629,22.0000118 C0.902310272,22.0000118 0.00687449076,21.104576 0.00687449076,20 C0.00687449076,19.9800782 0.00717214883,19.9601574 0.00776736529,19.9402445 C0.113079727,16.4170229 1.28928547,13.6582219 3.53638459,11.6638415 Z" id="Rectangle"></path>
                        <ellipse id="Oval" stroke="#FFFFFF" cx="8.5" cy="5.5" rx="4.5" ry="5.5"></ellipse>
                    </g>
                    <g id="Group-2" transform="translate(5.000000, 134.000000)" fill="#0091FF" stroke="#FFFFFF">
                        <path d="M4.25542078,11.2201505 C1.86900636,13.1192407 0.622971026,15.7373945 0.508642493,19.1143188 C0.507926753,19.1396909 0.507926753,19.1396909 0.50778358,19.1650728 C0.50778358,19.9934895 1.17934806,20.665054 2.00776541,20.665054 L17.9564388,20.6650728 C18.018464,20.6650728 18.0804296,20.6612257 18.1419785,20.6535536 C18.9640434,20.5510828 19.5473899,19.8015986 19.4449196,18.9795336 C19.032756,15.6729775 17.644342,13.0963897 15.2722983,11.2211485 C10.9615089,7.81321388 8.53660885,7.81321388 4.25542078,11.2201505 Z" id="Rectangle"></path>
                        <ellipse id="Oval" cx="9.575137" cy="5.5" rx="4.5" ry="5.5"></ellipse>
                    </g>
                    <g id="Group-3" transform="translate(80.000000, 121.000000)">
                        <g id="icon-exclamation" fill-rule="nonzero">
                            <g id="Path_1">
                                <path d="M37.6974346,39.7948718 L4.09743598,39.7948718 C3.27008213,39.7948718 2.49224619,39.4726813 1.9072205,38.8876515 C1.32218972,38.3026248 1,37.5247897 1,36.6974346 L1,3.09743598 C1,2.27008213 1.32218972,1.49224619 1.9072205,0.907220498 C2.49224619,0.322189722 3.27008213,-3.30402372e-13 4.09743598,-3.30402372e-13 L37.6974346,-3.30402372e-13 C38.5247897,-3.30402372e-13 39.3026248,0.322189722 39.8876578,0.907220498 C40.4726813,1.49224619 40.7948718,2.27008213 40.7948718,3.09743598 L40.7948718,36.6974346 C40.7948718,37.5247897 40.4726813,38.3026248 39.8876578,38.8876515 C39.3026248,39.4726813 38.5247897,39.7948718 37.6974346,39.7948718 Z" id="Path" stroke="#0091FF" stroke-width="2"></path>
                                <path d="M3.20000125,1.20512821 C2.40004006,1.20512821 1.64795861,1.51665164 1.08230669,2.08230669 C0.516651643,2.64795861 0.205128205,3.40004006 0.205128205,4.20000125 L0.205128205,37.7999987 C0.205128205,38.5999599 0.516651643,39.3520351 1.08230669,39.9176933 C1.64796487,40.4833484 2.40004006,40.7948718 3.20000125,40.7948718 L36.7999987,40.7948718 C37.5999599,40.7948718 38.3520351,40.4833484 38.9176933,39.9176933 C39.4833484,39.3520351 39.7948718,38.5999599 39.7948718,37.7999987 L39.7948718,4.20000125 C39.7948718,3.40004006 39.4833484,2.64796487 38.9176933,2.08230669 C38.3520351,1.51665164 37.5999599,1.20512821 36.7999987,1.20512821 L3.20000125,1.20512821 L3.20000125,1.20512821 Z M3.20000125,1 L36.7999987,1 C38.5673077,1 40,2.43268605 40,4.20000125 L40,37.7999987 C40,39.5673077 38.5673077,41 36.7999987,41 L3.20000125,41 C1.43268605,41 0,39.5673077 0,37.7999987 L0,4.20000125 C0,2.43268605 1.43268605,1 3.20000125,1 Z" id="Shape"></path>
                            </g>
                        </g>
                        <circle id="Oval" stroke="#0091FF" fill="#0091FF" transform="translate(14.402402, 13.366446) rotate(-45.000000) translate(-14.402402, -13.366446) " cx="14.4024021" cy="13.3664461" r="8"></circle>
                        <path d="M26.8421383,35.2848768 C30.5569209,35.2848768 29.3504403,30.7133619 29.3504403,25.0741125 C29.3504403,19.434863 28.8421383,16.2848768 26.8421383,16.2848768 C24.8421383,16.2848768 24.4959521,19.434863 24.4959521,25.0741125 C24.4959521,30.7133619 23.1273556,35.2848768 26.8421383,35.2848768 Z" id="Oval" stroke="#0091FF" fill="#0091FF" transform="translate(26.893574, 25.784877) rotate(-45.000000) translate(-26.893574, -25.784877) "></path>
                        <circle id="Oval" stroke="#0091FF" fill="#FFFFFF" transform="translate(14.402402, 13.366446) rotate(-45.000000) translate(-14.402402, -13.366446) " cx="14.4024019" cy="13.3664459" r="7"></circle>
                    </g>
                </g>
            </g>
        </g>
    </g>
</svg>